<?xml version="1.0" encoding="utf-8"?>
<!-- Generator: Adobe Illustrator 23.0.5, SVG Export Plug-In . SVG Version: 6.00 Build 0)  -->
<svg version="1.1" xmlns="http://www.w3.org/2000/svg" xmlns:xlink="http://www.w3.org/1999/xlink" x="0px" y="0px"
	 viewBox="0 0 1080 1080" style="enable-background:new 0 0 1080 1080;" xml:space="preserve">
<style type="text/css">
	.st0{fill:none;stroke:#000000;stroke-width:3;stroke-linecap:round;stroke-linejoin:round;stroke-miterlimit:10;}
	.st1{fill:none;stroke:#000000;stroke-miterlimit:10;}
</style>
<g id="Layer_1">
</g>
<g id="Layer_2">
	<g id="XMLID_42_">
		<g id="XMLID_19_">
			<path id="XMLID_56_" d="M567.7,600.56c-20.51,0-38.46-2.89-54.35-8.72c-31.34-11.43-51.14-33.01-70.29-53.87l-4.26-4.63
				c-14.19-15.39-28.56-30.2-48.37-42.12c-65.27-39.29-111.52-6.46-113.46-5.04c-3.03,2.22-7.16,2.09-10.05-0.31
				c-2.88-2.4-3.77-6.45-2.14-9.82c1.18-2.45,29.95-59.84,123.54-46.65c23.9,3.38,47.37,11.05,69.77,22.81
				c19.23,10.05,116.6,57.17,183.39,19.16c-4.44-20.8-13.5-88.09,45.44-120.45c2.18-1.19,4.77-1.32,7.06-0.39
				c2.29,0.95,4.03,2.89,4.72,5.27c0.72,2.47,16.1,56.42,6.61,100.01c3.9,0.12,8.64,0.43,14,1.08c28.37,3.38,67.97,15.43,95.26,53.7
				c2.48,3.48,1.86,8.28-1.41,11.02c-0.61,0.51-59.44,48.46-127.04,5.06c-24.75,30.07-52.79,53.9-83.47,70.88
				c-0.92,0.51-1.93,0.84-2.97,0.96C588.37,599.87,577.73,600.56,567.7,600.56z M327.18,455.72c20.26,0,44.67,5.24,71.67,21.5
				c21.64,13.03,37.53,29.39,51.96,45.04l4.29,4.66c18.65,20.31,36.26,39.5,63.86,49.58c20.83,7.64,46.07,9.58,77.15,5.96
				c30.2-16.99,57.77-41.16,81.94-71.86c2.71-3.45,7.66-4.14,11.21-1.56c47.83,34.62,91.05,14.4,106.95,4.5
				c-23.52-28.27-55.46-37.64-78.88-40.43c-13.03-1.6-21.96-0.85-22.05-0.84c-2.77,0.23-5.44-0.92-7.15-3.1
				c-1.7-2.17-2.2-5.06-1.31-7.67c10.14-29.86,3.11-71.17-1.18-90.44c-46.82,34.45-27.21,101.09-27,101.8
				c1.06,3.48-0.31,7.25-3.37,9.23c-72.57,47.06-175.08,0.1-204.77-15.41c-20.75-10.89-42.44-17.98-64.47-21.1
				c-38.94-5.48-64.76,2.39-81.22,12.32C311.54,456.57,319.02,455.72,327.18,455.72z"/>
		</g>
		<g id="XMLID_14_">
			<path id="XMLID_53_" d="M437.14,632.71c-0.14,0-0.29-0.01-0.44-0.01c-13.09-0.71-25.88-2.44-38-5.14
				c-25.81-5.65-48.71-15.85-68.04-30.3c-59.87-44.59-66.45-113.98-66.7-116.91c-0.22-2.54,0.76-5.03,2.64-6.74
				c0.21-0.19,0.49-0.43,0.73-0.6c2.29-1.68,57.07-40.61,131.54,4.22c21.64,13.03,37.53,29.39,51.96,45.04
				c1.88,2.04,2.6,4.89,1.91,7.57c-4.86,18.91-12.29,56.23-7.48,93.67c0.31,2.4-0.47,4.82-2.12,6.6
				C441.57,631.77,439.4,632.71,437.14,632.71z M280.89,483.69c2.59,15.68,14.22,66.71,59.54,100.46
				c17.46,13.05,38.25,22.28,61.8,27.44c8.3,1.86,16.94,3.22,25.79,4.07c-2.64-33.92,3.18-66.34,7.8-85.55
				c-13.25-14.22-26.96-27.8-45.38-38.89C335.16,457.94,293.52,476.4,280.89,483.69z"/>
		</g>
		<g id="XMLID_15_">
			<path id="XMLID_50_" d="M522.27,625.9c-1.78,0-3.52-0.58-4.96-1.68c-1.8-1.37-2.95-3.43-3.17-5.69
				c-1.04-10.35-3.01-21.23-5.88-32.32c-0.76-2.94,0.17-6.06,2.42-8.1c2.26-2.05,5.46-2.67,8.3-1.62
				c21.17,7.76,46.91,9.64,78.72,5.77c3.91-0.49,7.54,1.86,8.76,5.57c1.21,3.71-0.37,7.76-3.78,9.67
				c-22.85,12.79-47.69,21.97-73.82,27.3l-0.97,0.19c-1.44,0.28-2.84,0.55-4.24,0.79C523.18,625.86,522.72,625.9,522.27,625.9z
				 M527.27,596.07c0.8,4.02,1.48,8.01,2.04,11.94c9.33-2.05,18.49-4.63,27.43-7.73C546.24,599.71,536.44,598.31,527.27,596.07z"/>
		</g>
		<g id="XMLID_12_">
			<path id="XMLID_47_" d="M496.12,730.1c-1.47,0-2.96-0.4-4.29-1.22c-35.78-22.12-56.91-56.89-62.79-103.31
				c-5.15-40.13,2.72-79.75,7.87-99.8c0.74-2.9,3.02-5.16,5.92-5.89c2.91-0.73,5.97,0.18,8.01,2.38l4.29,4.67
				c18.65,20.31,36.26,39.5,63.86,49.58c2.53,0.92,4.44,3.03,5.11,5.63c3.08,11.9,5.21,23.6,6.32,34.79
				c7.32,72.23-26.9,109.1-28.36,110.64C500.45,729.23,498.3,730.1,496.12,730.1z M449.31,544.75c-4.12,20.38-7.82,49.53-4.07,78.75
				c4.88,38.55,21.38,67.92,49.06,87.44c8.1-11.78,24.86-42.81,19.84-92.39c-0.91-9.1-2.54-18.6-4.87-28.28
				C483.55,579.83,465.77,562.46,449.31,544.75z"/>
		</g>
		<g id="XMLID_17_">
			<path id="XMLID_44_" d="M374,707.88c-1.69,0-3.38-0.52-4.82-1.57c-34-24.83-48.43-65.16-41.74-116.65
				c0.37-2.88,2.24-5.34,4.92-6.47c2.67-1.13,5.75-0.76,8.07,0.98c17.45,13.04,38.23,22.27,61.78,27.43c3.66,0.8,6.3,3.99,6.42,7.74
				c1.73,57.91-27.91,85.3-29.17,86.44C377.93,707.17,375.96,707.88,374,707.88z M342.39,605.24c-1.98,36.13,8.3,64.07,30.64,83.29
				c6.8-8.78,18.89-29.03,19.33-62.46C374.06,621.43,357.33,614.46,342.39,605.24z"/>
		</g>
	</g>
</g>
</svg>
